HIERARCHY
ROOT mixamorig:Hips
{
	OFFSET 0.000000 201.639420 0.000000
	CHANNELS 6 Xposition Yposition Zposition Xrotation Yrotation Zrotation
	JOINT mixamorig:Spine
	{
		OFFSET 0.006200 19.524994 -2.481800
		CHANNELS 3 Xrotation Yrotation Zrotation
		JOINT mixamorig:Spine1
		{
			OFFSET -0.000900 22.835007 -2.825400
			CHANNELS 3 Xrotation Yrotation Zrotation
			JOINT mixamorig:Spine2
			{
				OFFSET -0.020600 26.552490 -3.193300
				CHANNELS 3 Xrotation Yrotation Zrotation
				JOINT mixamorig:Neck
				{
					OFFSET -0.060000 30.701813 1.352200
					CHANNELS 3 Xrotation Yrotation Zrotation
					JOINT mixamorig:Head
					{
						OFFSET -0.087200 22.547607 3.670900
						CHANNELS 3 Xrotation Yrotation Zrotation
						JOINT mixamorig:HeadTop_End
						{
							OFFSET -0.830600 40.355194 7.893500
							CHANNELS 3 Xrotation Yrotation Zrotation
							End Site
							{
								OFFSET 0.000000 30.592346 0.000000
							}
						}
						JOINT mixamorig:RightEye
						{
							OFFSET -6.302100 18.118591 16.197100
							CHANNELS 3 Xrotation Yrotation Zrotation
							End Site
							{
								OFFSET 0.000000 30.592346 0.000000
							}
						}
						JOINT mixamorig:LeftEye
						{
							OFFSET 6.741500 18.382690 16.401899
							CHANNELS 3 Xrotation Yrotation Zrotation
							End Site
							{
								OFFSET 0.000000 30.592346 0.000000
							}
						}
					}
				}
				JOINT mixamorig:LeftShoulder
				{
					OFFSET 11.924900 18.230499 1.425400
					CHANNELS 3 Xrotation Yrotation Zrotation
					JOINT mixamorig:LeftArm
					{
						OFFSET 25.435989 -0.697632 -5.229300
						CHANNELS 3 Xrotation Yrotation Zrotation
						JOINT mixamorig:LeftForeArm
						{
							OFFSET 54.684776 0.000000 0.000000
							CHANNELS 3 Xrotation Yrotation Zrotation
							JOINT mixamorig:LeftHand
							{
								OFFSET 55.098175 0.000000 0.000000
								CHANNELS 3 Xrotation Yrotation Zrotation
								JOINT mixamorig:LeftHandMiddle1
								{
									OFFSET 23.369751 0.000000 0.000000
									CHANNELS 3 Xrotation Yrotation Zrotation
									JOINT mixamorig:LeftHandMiddle2
									{
										OFFSET 6.378677 0.000000 0.000000
										CHANNELS 3 Xrotation Yrotation Zrotation
										JOINT mixamorig:LeftHandMiddle3
										{
											OFFSET 6.148331 0.000000 0.000000
											CHANNELS 3 Xrotation Yrotation Zrotation
											JOINT mixamorig:LeftHandMiddle4
											{
												OFFSET 6.582504 0.000000 0.000000
												CHANNELS 3 Xrotation Yrotation Zrotation
												End Site
												{
													OFFSET -1.168900 6.395691 1.028606
												}
											}
										}
									}
								}
								JOINT mixamorig:LeftHandThumb1
								{
									OFFSET 7.235672 -3.848206 5.434273
									CHANNELS 3 Xrotation Yrotation Zrotation
									JOINT mixamorig:LeftHandThumb2
									{
										OFFSET 6.568451 -3.792297 3.792300
										CHANNELS 3 Xrotation Yrotation Zrotation
										JOINT mixamorig:LeftHandThumb3
										{
											OFFSET 6.063080 -3.500519 3.500518
											CHANNELS 3 Xrotation Yrotation Zrotation
											JOINT mixamorig:LeftHandThumb4
											{
												OFFSET 4.793182 -2.767334 2.767349
												CHANNELS 3 Xrotation Yrotation Zrotation
												End Site
												{
													OFFSET 0.101639 6.054260 1.275483
												}
											}
										}
									}
								}
								JOINT mixamorig:LeftHandIndex1
								{
									OFFSET 23.101074 -0.309540 4.992809
									CHANNELS 3 Xrotation Yrotation Zrotation
									JOINT mixamorig:LeftHandIndex2
									{
										OFFSET 6.226883 0.000000 0.000000
										CHANNELS 3 Xrotation Yrotation Zrotation
										JOINT mixamorig:LeftHandIndex3
										{
											OFFSET 6.094330 0.000000 0.000000
											CHANNELS 3 Xrotation Yrotation Zrotation
											JOINT mixamorig:LeftHandIndex4
											{
												OFFSET 5.482605 0.000000 0.000000
												CHANNELS 3 Xrotation Yrotation Zrotation
												End Site
												{
													OFFSET -1.427902 5.233032 0.797164
												}
											}
										}
									}
								}
								JOINT mixamorig:LeftHandRing1
								{
									OFFSET 22.299240 0.021149 -3.964172
									CHANNELS 3 Xrotation Yrotation Zrotation
									JOINT mixamorig:LeftHandRing2
									{
										OFFSET 6.321869 0.000000 0.000000
										CHANNELS 3 Xrotation Yrotation Zrotation
										JOINT mixamorig:LeftHandRing3
										{
											OFFSET 5.899796 0.000000 0.000000
											CHANNELS 3 Xrotation Yrotation Zrotation
											JOINT mixamorig:LeftHandRing4
											{
												OFFSET 6.517899 0.000000 0.000000
												CHANNELS 3 Xrotation Yrotation Zrotation
												End Site
												{
													OFFSET -1.637299 6.232208 0.980890
												}
											}
										}
									}
								}
								JOINT mixamorig:LeftHandPinky1
								{
									OFFSET 20.463791 -0.302338 -8.562233
									CHANNELS 3 Xrotation Yrotation Zrotation
									JOINT mixamorig:LeftHandPinky2
									{
										OFFSET 6.908646 0.000000 0.000000
										CHANNELS 3 Xrotation Yrotation Zrotation
										JOINT mixamorig:LeftHandPinky3
										{
											OFFSET 4.622849 0.000000 0.000000
											CHANNELS 3 Xrotation Yrotation Zrotation
											JOINT mixamorig:LeftHandPinky4
											{
												OFFSET 5.216080 0.000000 0.000000
												CHANNELS 3 Xrotation Yrotation Zrotation
												End Site
												{
													OFFSET -0.606308 5.116241 0.814926
												}
											}
										}
									}
								}
							}
						}
					}
				}
				JOINT mixamorig:RightShoulder
				{
					OFFSET -12.001300 18.284088 1.348900
					CHANNELS 3 Xrotation Yrotation Zrotation
					JOINT mixamorig:RightArm
					{
						OFFSET -25.308500 -0.751312 -5.164599
						CHANNELS 3 Xrotation Yrotation Zrotation
						JOINT mixamorig:RightForeArm
						{
							OFFSET -54.684429 0.000000 0.000000
							CHANNELS 3 Xrotation Yrotation Zrotation
							JOINT mixamorig:RightHand
							{
								OFFSET -55.150291 0.000000 0.000000
								CHANNELS 3 Xrotation Yrotation Zrotation
								JOINT mixamorig:RightHandMiddle1
								{
									OFFSET -23.317566 0.000000 0.000000
									CHANNELS 3 Xrotation Yrotation Zrotation
									JOINT mixamorig:RightHandMiddle2
									{
										OFFSET -6.378403 0.000000 0.000000
										CHANNELS 3 Xrotation Yrotation Zrotation
										JOINT mixamorig:RightHandMiddle3
										{
											OFFSET -6.148193 0.000000 0.000000
											CHANNELS 3 Xrotation Yrotation Zrotation
											JOINT mixamorig:RightHandMiddle4
											{
												OFFSET -6.583389 0.000000 0.000000
												CHANNELS 3 Xrotation Yrotation Zrotation
												End Site
												{
													OFFSET 1.171692 6.395905 1.029786
												}
											}
										}
									}
								}
								JOINT mixamorig:RightHandThumb1
								{
									OFFSET -7.190521 -3.860474 5.435846
									CHANNELS 3 Xrotation Yrotation Zrotation
									JOINT mixamorig:RightHandThumb2
									{
										OFFSET -6.567429 -3.791718 3.791708
										CHANNELS 3 Xrotation Yrotation Zrotation
										JOINT mixamorig:RightHandThumb3
										{
											OFFSET -6.062469 -3.500153 3.500166
											CHANNELS 3 Xrotation Yrotation Zrotation
											JOINT mixamorig:RightHandThumb4
											{
												OFFSET -4.792618 -2.767029 2.767022
												CHANNELS 3 Xrotation Yrotation Zrotation
												End Site
												{
													OFFSET -0.100327 6.053253 1.276754
												}
											}
										}
									}
								}
								JOINT mixamorig:RightHandIndex1
								{
									OFFSET -23.048981 -0.310791 4.992554
									CHANNELS 3 Xrotation Yrotation Zrotation
									JOINT mixamorig:RightHandIndex2
									{
										OFFSET -6.227539 0.000000 0.000000
										CHANNELS 3 Xrotation Yrotation Zrotation
										JOINT mixamorig:RightHandIndex3
										{
											OFFSET -6.095047 0.000000 0.000000
											CHANNELS 3 Xrotation Yrotation Zrotation
											JOINT mixamorig:RightHandIndex4
											{
												OFFSET -5.484772 0.000000 0.000000
												CHANNELS 3 Xrotation Yrotation Zrotation
												End Site
												{
													OFFSET 1.420593 5.237305 0.797056
												}
											}
										}
									}
								}
								JOINT mixamorig:RightHandRing1
								{
									OFFSET -22.246323 0.020569 -3.963762
									CHANNELS 3 Xrotation Yrotation Zrotation
									JOINT mixamorig:RightHandRing2
									{
										OFFSET -6.322128 0.000000 0.000000
										CHANNELS 3 Xrotation Yrotation Zrotation
										JOINT mixamorig:RightHandRing3
										{
											OFFSET -5.900024 0.000000 0.000000
											CHANNELS 3 Xrotation Yrotation Zrotation
											JOINT mixamorig:RightHandRing4
											{
												OFFSET -6.518356 0.000000 0.000000
												CHANNELS 3 Xrotation Yrotation Zrotation
												End Site
												{
													OFFSET 1.636398 6.232697 0.982186
												}
											}
										}
									}
								}
								JOINT mixamorig:RightHandPinky1
								{
									OFFSET -20.411011 -0.303314 -8.561701
									CHANNELS 3 Xrotation Yrotation Zrotation
									JOINT mixamorig:RightHandPinky2
									{
										OFFSET -6.907349 0.000000 0.000000
										CHANNELS 3 Xrotation Yrotation Zrotation
										JOINT mixamorig:RightHandPinky3
										{
											OFFSET -4.623840 0.000000 0.000000
											CHANNELS 3 Xrotation Yrotation Zrotation
											JOINT mixamorig:RightHandPinky4
											{
												OFFSET -5.218353 0.000000 0.000000
												CHANNELS 3 Xrotation Yrotation Zrotation
												End Site
												{
													OFFSET 0.602097 5.118835 0.816273
												}
											}
										}
									}
								}
							}
						}
					}
				}
			}
		}
	}
	JOINT mixamorig:LeftUpLeg
	{
		OFFSET 18.168400 -13.561905 -0.039000
		CHANNELS 3 Xrotation Yrotation Zrotation
		JOINT mixamorig:LeftLeg
		{
			OFFSET 0.577358 -80.825211 -3.695000
			CHANNELS 3 Xrotation Yrotation Zrotation
			JOINT mixamorig:LeftFoot
			{
				OFFSET -0.577356 -83.370262 -6.520700
				CHANNELS 3 Xrotation Yrotation Zrotation
				JOINT mixamorig:LeftToeBase
				{
					OFFSET 0.750401 -20.798306 25.135401
					CHANNELS 3 Xrotation Yrotation Zrotation
					JOINT mixamorig:LeftToe_End
					{
						OFFSET -0.000500 0.001200 19.917799
						CHANNELS 3 Xrotation Yrotation Zrotation
						End Site
						{
							OFFSET 0.000000 19.917805 0.000000
						}
					}
				}
			}
		}
	}
	JOINT mixamorig:RightUpLeg
	{
		OFFSET -18.162500 -13.585098 -0.041000
		CHANNELS 3 Xrotation Yrotation Zrotation
		JOINT mixamorig:RightLeg
		{
			OFFSET -0.595024 -80.945297 -3.631900
			CHANNELS 3 Xrotation Yrotation Zrotation
			JOINT mixamorig:RightFoot
			{
				OFFSET 0.595024 -83.218193 -6.561200
				CHANNELS 3 Xrotation Yrotation Zrotation
				JOINT mixamorig:RightToeBase
				{
					OFFSET -0.753601 -20.807106 25.115000
					CHANNELS 3 Xrotation Yrotation Zrotation
					JOINT mixamorig:RightToe_End
					{
						OFFSET 0.000299 0.001700 19.918200
						CHANNELS 3 Xrotation Yrotation Zrotation
						End Site
						{
							OFFSET 0.000000 19.918203 0.000000
						}
					}
				}
			}
		}
	}
}
MOTION
Frames: 4
Frame Time: 0.033333
1.068372 321.441345 220.068207 2.982498 -2.412228 -1.631338 8.540527 0.276598 -2.741614 15.726143 0.288674 -1.524539 15.768965 0.432024 -1.011460 -19.021464 -1.579693 3.940734 -5.753535 -0.030511 -1.986289 -0.000000 -0.000000 0.000000 -0.000000 -0.000000 0.000000 -0.000000 -0.000000 0.000000 3.660256 -12.085841 23.365377 -66.942691 -7.114395 -90.839897 -0.000005 -0.990280 -0.000033 33.616046 7.203459 5.087473 -0.000008 -0.001927 0.015999 0.000014 0.001945 -0.015957 0.000003 0.000001 -0.000004 0.000001 -0.000000 0.000001 -1.540057 3.690176 6.142347 3.939040 7.948701 0.746783 -0.579464 1.575005 2.538714 0.000000 -0.000001 -0.000001 -0.000010 0.000002 0.000012 0.000002 -0.000004 -0.000003 -0.000003 0.000001 0.000001 0.000004 -0.000001 0.000003 -0.000007 -0.000004 0.000012 0.000012 0.000005 0.000009 -0.000009 0.000008 -0.000012 -0.000000 -0.000000 -0.000000 -0.018090 4.054246 0.511076 -0.018081 -4.054236 -0.511049 -0.000002 0.000008 -0.000007 0.000000 -0.000000 0.000000 0.515998 0.319191 -3.874054 -72.320543 38.379680 103.335161 -0.000007 13.951671 0.000020 32.124678 0.179400 -1.381728 -0.000005 0.000010 -0.000037 0.000002 0.000004 0.000006 0.000000 -0.000015 -0.000011 0.000002 -0.000000 0.000001 -1.849257 -3.581776 -6.586161 4.637182 -8.634137 -0.225412 -1.273761 0.137306 -2.094882 -0.000001 -0.000000 -0.000000 0.000001 0.000023 -0.000030 -0.000001 -0.000007 0.000069 -0.000004 -0.000018 -0.000013 -0.000000 0.000000 0.000001 0.000001 0.000016 -0.000031 -0.000006 -0.000009 0.000077 -0.000005 -0.000015 -0.000014 -0.000001 0.000000 -0.000005 -0.000004 0.000012 -0.000034 0.000001 0.000006 0.000056 0.000002 -0.000012 -0.000017 0.000000 -0.000001 0.000001 -69.940932 7.872957 46.220139 71.871711 -8.336730 -9.765094 16.495528 -11.920344 -16.331706 -0.000011 -0.000008 0.000007 0.000002 -0.000004 0.000002 -51.539429 -10.089983 -27.760278 46.556605 -10.679464 9.339718 25.612146 2.941138 18.242300 -0.000006 -0.000000 0.000008 -0.000000 0.000002 -0.000001 
-0.552487 302.951355 234.169037 -3.023911 -2.795883 -2.924737 8.260346 0.698860 -2.077477 15.653496 1.447762 -1.145571 15.665290 1.615866 -0.840947 -16.024223 -1.337158 3.660404 -2.067318 0.012970 -2.079336 -0.000001 0.000000 0.000000 -0.000001 0.000000 0.000000 -0.000001 0.000000 0.000000 3.150332 -11.011908 23.259429 -65.108881 -5.475524 -93.799937 0.000003 -0.133648 0.000008 35.415521 6.308721 6.855393 0.000005 -0.001937 0.015969 0.000002 0.001931 -0.015969 0.000008 -0.000001 -0.000008 -0.000000 0.000000 0.000000 -1.540037 3.690181 6.142349 3.939044 7.948703 0.746781 -0.579468 1.575004 2.538721 0.000004 0.000000 -0.000000 0.000008 -0.000001 -0.000007 0.000001 0.000010 -0.000111 -0.000005 -0.000002 -0.000008 -0.000001 -0.000001 0.000002 0.000009 -0.000009 -0.000017 -0.000008 0.000009 0.000006 0.000001 0.000008 -0.000006 -0.000000 -0.000000 0.000002 -0.018075 4.054244 0.511046 -0.018095 -4.054247 -0.511058 -0.000001 -0.000005 -0.000008 0.000001 -0.000001 0.000003 0.777848 1.489721 -5.248558 -63.820188 37.426688 100.528958 -0.000001 22.312012 -0.000015 32.074227 -0.609468 -3.362203 -0.000010 0.000012 0.000012 0.000001 -0.000009 0.000007 0.000006 0.000001 0.000003 0.000003 -0.000003 -0.000001 -1.849238 -3.581790 -6.586117 4.637184 -8.634144 -0.225404 -1.273742 0.137332 -2.094869 0.000002 0.000000 -0.000000 -0.000008 0.000007 0.000012 -0.000001 -0.000009 0.000062 0.000001 0.000001 0.000009 -0.000000 -0.000002 -0.000002 -0.000009 0.000001 0.000014 0.000007 0.000004 0.000059 -0.000007 -0.000000 0.000001 0.000002 0.000003 -0.000006 -0.000002 0.000007 0.000013 -0.000004 -0.000004 0.000001 0.000004 -0.000004 -0.000008 -0.000003 -0.000002 0.000002 -58.236262 11.440935 45.434534 63.583966 -8.447518 -9.741855 18.125922 -9.746044 -15.586275 0.000003 -0.000020 0.000015 -0.000000 -0.000000 -0.000001 -37.479058 -12.424535 -22.424635 35.861420 -10.148612 7.084277 27.596734 3.053000 20.215898 0.000004 -0.000003 -0.000006 -0.000002 -0.000001 -0.000001 
-2.606682 282.232910 248.583008 -10.204292 -4.145951 -4.763764 8.461940 1.699476 -1.203817 16.328897 2.851747 -0.783860 16.356645 2.670360 -0.606013 -11.460056 -0.785819 2.759627 0.908861 0.243079 -1.580673 -0.000001 0.000000 -0.000000 -0.000001 0.000000 -0.000000 -0.000001 0.000000 -0.000000 2.876963 -10.215198 23.695460 -61.497254 -4.471943 -96.036271 -0.000001 -5.399570 0.000012 37.634721 3.522610 6.569633 0.000006 -0.001934 0.015977 0.000003 0.001923 -0.015985 -0.000006 0.000017 0.000011 -0.000002 0.000001 -0.000003 -1.540044 3.690180 6.142341 3.939039 7.948701 0.746785 -0.579466 1.575008 2.538715 0.000001 0.000002 -0.000004 0.000002 0.000002 0.000003 -0.000005 -0.000003 -0.000013 0.000001 -0.000003 -0.000002 0.000002 -0.000000 0.000000 0.000001 -0.000002 -0.000002 0.000003 -0.000008 -0.000046 -0.000011 0.000008 -0.000009 0.000001 -0.000001 -0.000001 -0.018090 4.054260 0.511056 -0.018080 -4.054262 -0.511047 -0.000005 0.000000 0.000003 -0.000002 0.000001 -0.000001 1.060636 2.934655 -7.186034 -56.284891 36.378414 98.364116 0.000009 30.956828 -0.000012 32.486979 -1.122716 -4.510998 -0.000004 0.000012 0.000013 -0.000003 -0.000003 -0.000001 0.000010 0.000015 0.000006 0.000002 0.000000 -0.000000 -1.849256 -3.581797 -6.586126 4.637198 -8.634137 -0.225398 -1.273761 0.137307 -2.094880 0.000000 0.000000 -0.000000 -0.000007 0.000001 0.000014 0.000008 0.000016 -0.000008 0.000009 -0.000015 -0.000013 0.000003 0.000002 -0.000002 -0.000001 0.000008 0.000012 -0.000003 -0.000010 0.000173 0.000005 0.000013 -0.000002 -0.000002 0.000000 0.000000 -0.000009 -0.000002 0.000016 0.000003 0.000004 0.000199 0.000009 0.000009 0.000003 -0.000001 0.000001 0.000003 -47.038789 15.838427 46.621181 55.797062 -8.132269 -8.307337 19.031613 -10.803436 -14.111803 -0.000003 -0.000006 -0.000005 -0.000000 -0.000001 0.000002 -22.862117 -13.200948 -16.151765 26.186520 -9.360771 4.211095 30.037697 3.090222 22.585714 -0.000009 0.000020 -0.000000 0.000000 0.000000 0.000001 
-4.972703 259.682068 263.554535 -12.587339 -7.681235 -4.278688 7.669546 2.591842 -1.986778 14.982483 4.452574 -1.177814 15.067933 4.099665 -1.120483 -8.316628 -0.265577 1.546297 1.470568 0.762629 -1.087606 -0.000000 -0.000000 0.000000 -0.000000 -0.000000 0.000000 -0.000000 -0.000000 0.000000 2.900943 -9.941141 23.913121 -54.714709 -4.499471 -97.327149 0.000007 -16.716130 -0.000000 38.609058 0.356578 2.733246 0.000002 -0.001920 0.015987 -0.000002 0.001914 -0.015978 -0.000000 -0.000001 0.000002 0.000001 -0.000001 0.000004 -1.540035 3.690179 6.142360 3.939040 7.948701 0.746780 -0.579468 1.575005 2.538716 0.000001 0.000000 -0.000004 0.000004 -0.000005 -0.000002 0.000001 -0.000004 -0.000002 0.000000 0.000003 -0.000002 -0.000000 0.000004 -0.000006 0.000001 -0.000002 -0.000004 -0.000005 -0.000007 0.000001 -0.000001 0.000011 0.000003 -0.000003 -0.000002 0.000004 -0.018077 4.054262 0.511071 -0.018090 -4.054256 -0.511071 -0.000006 -0.000002 0.000001 0.000001 -0.000001 0.000003 1.177631 4.184142 -9.693207 -50.294081 36.178095 98.750247 -0.000040 36.894008 0.000030 32.870873 -1.697189 -5.792305 -0.000002 0.000002 -0.000006 -0.000002 -0.000001 -0.000004 0.000001 0.000007 0.000003 0.000001 -0.000002 -0.000001 -1.849250 -3.581812 -6.586145 4.637193 -8.634133 -0.225389 -1.273755 0.137328 -2.094874 0.000000 -0.000000 0.000002 0.000002 0.000008 0.000005 -0.000001 -0.000004 0.000002 0.000004 -0.000011 -0.000003 -0.000001 0.000002 -0.000004 0.000002 0.000001 0.000004 0.000005 -0.000014 -0.000003 -0.000007 0.000009 0.000003 -0.000000 0.000000 -0.000003 -0.000004 0.000009 0.000005 -0.000000 -0.000007 0.000002 0.000004 -0.000013 -0.000007 0.000001 0.000001 -0.000003 -38.215062 21.274636 45.144969 45.113621 -7.557884 -8.560229 21.512050 -11.121987 -15.049121 -0.000004 -0.000006 0.000001 -0.000002 0.000000 0.000000 -13.863833 -12.260704 -12.146579 14.686846 -10.597978 1.430628 36.560777 6.020686 22.975353 -0.000000 0.000004 -0.000003 0.000002 0.000000 0.000002 
